HIERARCHY
ROOT Hips
{
	OFFSET 0.000000 0.000000 0.000000
	CHANNELS 6 Xposition Yposition Zposition Zrotation Yrotation Xrotation 
	JOINT LHipJoint
	{
		OFFSET 0.000000 0.000000 0.000000
		CHANNELS 3 Zrotation Yrotation Xrotation
		JOINT LeftUpLeg
		{
			OFFSET 1.363060 -1.794630 0.839290
			CHANNELS 3 Zrotation Yrotation Xrotation
			JOINT LeftLeg
			{
				OFFSET 2.448110 -6.726130 0.000000
				CHANNELS 3 Zrotation Yrotation Xrotation
				JOINT LeftFoot
				{
					OFFSET 2.562200 -7.039590 0.000000
					CHANNELS 3 Zrotation Yrotation Xrotation
					JOINT LeftToeBase
					{
						OFFSET 0.157640 -0.433110 2.322550
						CHANNELS 3 Zrotation Yrotation Xrotation
						End Site
						{
							OFFSET 0.000000 0.000000 0.000000
						}
					}
				}
			}
		}
	}
	JOINT RHipJoint
	{
		OFFSET 0.000000 0.000000 0.000000
		CHANNELS 3 Zrotation Yrotation Xrotation
		JOINT RightUpLeg
		{
			OFFSET -1.305520 -1.794630 0.839290
			CHANNELS 3 Zrotation Yrotation Xrotation
			JOINT RightLeg
			{
				OFFSET -2.542530 -6.985550 0.000000
				CHANNELS 3 Zrotation Yrotation Xrotation
				JOINT RightFoot
				{
					OFFSET -2.568260 -7.056230 0.000000
					CHANNELS 3 Zrotation Yrotation Xrotation
					JOINT RightToeBase
					{
						OFFSET -0.164730 -0.452590 2.363150
						CHANNELS 3 Zrotation Yrotation Xrotation
						End Site
						{
							OFFSET 0.000000 0.000000 0.000000
						}
					}
				}
			}
		}
	}
	JOINT LowerBack
	{
		OFFSET 0.000000 0.000000 0.000000
		CHANNELS 3 Zrotation Yrotation Xrotation
		JOINT Spine
		{
			OFFSET 0.028270 2.035590 -0.193380
			CHANNELS 3 Zrotation Yrotation Xrotation
			JOINT Spine1
			{
				OFFSET 0.056720 2.048850 -0.042750
				CHANNELS 3 Zrotation Yrotation Xrotation
				JOINT Neck
				{
					OFFSET 0.000000 0.000000 0.000000
					CHANNELS 3 Zrotation Yrotation Xrotation
					JOINT Neck1
					{
						OFFSET -0.054170 1.746240 0.172020
						CHANNELS 3 Zrotation Yrotation Xrotation
						JOINT Head
						{
							OFFSET 0.104070 1.761360 -0.123970
							CHANNELS 3 Zrotation Yrotation Xrotation
							End Site
							{
								OFFSET 0.000000 0.000000 0.000000
							}
						}
					}
				}
				JOINT LeftShoulder
				{
					OFFSET 0.000000 0.000000 0.000000
					CHANNELS 3 Zrotation Yrotation Xrotation
					JOINT LeftArm
					{
						OFFSET 3.362410 1.200890 -0.311210
						CHANNELS 3 Zrotation Yrotation Xrotation
						JOINT LeftForeArm
						{
							OFFSET 4.983000 -0.000000 -0.000000
							CHANNELS 3 Zrotation Yrotation Xrotation
							JOINT LeftHand
							{
								OFFSET 3.483560 -0.000000 -0.000000
								CHANNELS 3 Zrotation Yrotation Xrotation
								JOINT LeftFingerBase
								{
									OFFSET 0.000000 0.000000 0.000000
									CHANNELS 3 Zrotation Yrotation Xrotation
									JOINT LeftHandIndex1
									{
										OFFSET 0.715260 -0.000000 -0.000000
										CHANNELS 3 Zrotation Yrotation Xrotation
										End Site
										{
											OFFSET 0.000000 0.000000 0.000000
										}
									}
								}
								JOINT LThumb
								{
									OFFSET 0.000000 0.000000 0.000000
									CHANNELS 3 Zrotation Yrotation Xrotation
									End Site
									{
										OFFSET 0.000000 0.000000 0.000000
									}
								}
							}
						}
					}
				}
				JOINT RightShoulder
				{
					OFFSET 0.000000 0.000000 0.000000
					CHANNELS 3 Zrotation Yrotation Xrotation
					JOINT RightArm
					{
						OFFSET -3.136600 1.374050 -0.404650
						CHANNELS 3 Zrotation Yrotation Xrotation
						JOINT RightForeArm
						{
							OFFSET -5.241900 -0.000000 -0.000000
							CHANNELS 3 Zrotation Yrotation Xrotation
							JOINT RightHand
							{
								OFFSET -3.444170 -0.000000 -0.000000
								CHANNELS 3 Zrotation Yrotation Xrotation
								JOINT RightFingerBase
								{
									OFFSET 0.000000 0.000000 0.000000
									CHANNELS 3 Zrotation Yrotation Xrotation
									JOINT RightHandIndex1
									{
										OFFSET -0.622530 -0.000000 -0.000000
										CHANNELS 3 Zrotation Yrotation Xrotation
										End Site
										{
											OFFSET 0.000000 0.000000 0.000000
										}
									}
								}
								JOINT RThumb
								{
									OFFSET 0.000000 0.000000 0.000000
									CHANNELS 3 Zrotation Yrotation Xrotation
									End Site
									{
										OFFSET 0.000000 0.000000 0.000000
									}
								}
							}
						}
					}
				}
			}
		}
	}
}
MOTION
Frames: 10
Frame Time: 0.008333
32.916104 17.755040 6.474032 -158.393842 -85.930192 165.858421 -2.360280 -1.027062 -0.366181 -16.327267 -6.546909 -6.926407 -0.566080 4.543617 11.056750 -0.355699 4.168001 1.339052 0.052200 1.475000 4.056700 0.273752 1.740786 -2.240721 15.233725 0.519069 -31.572246 -11.033113 -18.514469 62.871811 3.076890 -17.439179 -1.731681 -0.159300 -2.571900 7.089100 -1.964677 -0.934719 2.739110 0.755201 -0.935363 -5.509870 4.734385 -0.545441 -3.210490 -5.150560 -1.735399 -8.891145 9.576179 -1.967671 5.448763 4.082600 -0.743700 5.145900 4.240242 3.341412 -0.725339 -84.326954 -17.318689 37.776922 115.894639 -55.350344 -77.285547 -0.613690 1.778200 0.621008 19.088580 15.185841 4.704300 -7.125000 0.000000 0.000000 -6.979700 43.916300 0.187600 -2.391708 -3.254640 -1.116170 78.620664 18.470680 27.569692 -116.578083 59.972073 -82.696874 -0.823182 -0.419539 -3.565508 -28.550664 -23.104390 11.538900 7.125000 0.000000 0.000000 1.453600 -55.460800 -0.373300 
32.801089 17.749835 6.481740 -160.490465 -85.939405 167.893142 -2.385035 -1.042466 -0.360592 -16.611666 -6.424657 -6.391459 -0.565440 4.516698 10.991808 -0.351340 4.111349 0.932480 0.051500 1.464500 4.027800 0.225954 1.732194 -2.285134 15.086426 0.771230 -32.425452 -10.683572 -18.365215 61.811220 3.061236 -17.271566 -2.410724 -0.151800 -2.510700 6.919400 -2.088751 -1.022981 2.616966 0.762975 -1.039199 -5.391795 4.753160 -0.601668 -2.803444 -5.047434 -1.794892 -9.324260 9.608133 -2.072228 5.667223 4.076400 -0.775000 5.312800 4.247151 3.385034 -0.722427 -84.335244 -19.212314 37.141646 113.415628 -56.026446 -74.827712 -0.679098 1.808910 -0.693909 18.643108 15.690938 4.752000 -7.125000 0.000000 0.000000 -7.455600 44.346800 0.120900 -2.455239 -3.280891 -1.118039 78.677169 20.194338 26.861225 -112.787254 60.762174 -79.721893 -0.783247 -0.382473 -4.005691 -27.810357 -23.483959 11.395000 7.125000 0.000000 0.000000 2.332500 -55.761400 -0.616200 
32.687176 17.742928 6.491149 -163.595783 -85.916645 170.851015 -2.430763 -1.054732 -0.297136 -16.947939 -6.100561 -5.874793 -0.565071 4.463874 10.883824 -0.326777 3.959000 0.604218 0.052400 1.477500 4.063700 0.177760 1.689807 -2.265633 14.877007 1.025188 -33.191774 -10.287905 -18.176383 60.585666 3.059909 -17.177443 -3.129401 -0.121300 -2.245200 6.183800 -2.341138 -1.120750 3.170360 0.830033 -1.208282 -5.665007 5.041861 -0.649771 -3.854925 -5.173206 -1.708862 -8.311652 9.571155 -1.984665 5.922868 4.087900 -0.772200 5.226400 4.276018 3.325782 -0.723223 -84.568155 -19.523000 36.421642 110.972859 -56.645345 -72.357864 -0.751485 1.830907 -1.763628 17.987982 16.158693 4.731200 -7.125000 0.000000 0.000000 -8.111900 44.724500 0.055500 -2.443474 -3.246238 -1.158539 78.458561 20.511175 26.580219 -108.949742 61.378578 -76.707294 -0.739659 -0.342266 -4.803100 -26.814600 -23.995885 11.181600 7.125000 0.000000 0.000000 3.540800 -56.151900 -0.969400 
32.570360 17.733819 6.499958 -165.463312 -85.895559 172.678015 -2.443986 -1.078257 -0.312572 -17.246691 -6.033552 -5.338603 -0.560354 4.454907 10.865146 -0.341596 4.002368 0.163575 0.051200 1.459900 4.015200 0.143718 1.679598 -2.313257 14.761214 1.185875 -33.794338 -9.747255 -17.907861 58.860189 3.136979 -17.461305 -3.759299 -0.122200 -2.253400 6.206500 -2.369267 -1.194005 2.878993 0.821239 -1.279701 -5.466237 4.969074 -0.701289 -3.137746 -5.049326 -1.773888 -8.923489 9.616880 -2.088020 6.062426 4.087100 -0.795400 5.390600 4.286586 3.397445 -0.695571 -84.702467 -21.664361 35.540893 107.308276 -57.572912 -68.716125 -0.825654 1.867048 -2.662833 17.403503 16.792347 4.769500 -7.125000 0.000000 0.000000 -8.740500 45.260900 -0.056700 -2.530226 -3.293109 -1.165174 78.588025 22.476686 25.847969 -103.617130 62.041915 -72.510758 -0.701891 -0.299269 -5.456673 -25.942248 -24.542956 11.027200 7.125000 0.000000 0.000000 4.651500 -56.599700 -1.324700 
32.453844 17.725511 6.508567 -167.456001 -85.862335 174.596284 -2.460628 -1.096888 -0.299642 -17.540788 -5.868115 -4.817766 -0.556367 4.431825 10.821783 -0.341447 3.975593 -0.249697 0.048900 1.426900 3.924300 0.113589 1.658119 -2.331903 14.628626 1.368943 -34.422727 -9.243956 -17.637749 57.240268 3.176464 -17.584262 -4.371082 -0.114000 -2.177400 5.996100 -2.463865 -1.266913 2.910146 0.842400 -1.378275 -5.453283 5.037588 -0.744906 -3.109019 -5.022858 -1.789918 -8.912089 9.625779 -2.131548 6.257551 4.088800 -0.815600 5.464500 4.302823 3.422133 -0.666738 -84.892506 -23.099950 34.634901 103.819850 -58.403268 -65.289421 -0.893318 1.891597 -3.560731 16.822142 17.348961 4.775500 -7.125000 0.000000 0.000000 -9.367500 45.724900 -0.169100 -2.575463 -3.311575 -1.194907 78.594413 23.755110 25.377684 -98.582918 62.393776 -68.540087 -0.668822 -0.259744 -6.242150 -24.947435 -25.136542 10.813300 7.125000 0.000000 0.000000 5.937900 -57.058000 -1.758500 
32.336328 17.716402 6.516875 -169.190517 -85.824968 176.266912 -2.471520 -1.114417 -0.288165 -17.821020 -5.705901 -4.309383 -0.551473 4.412546 10.789345 -0.341677 3.954682 -0.672132 0.045500 1.376800 3.786300 0.091180 1.638120 -2.347951 14.516267 1.520371 -34.979710 -8.697225 -17.320676 55.443940 3.228717 -17.774096 -4.913962 -0.106000 -2.099600 5.780900 -2.539540 -1.331439 2.928101 0.865119 -1.467231 -5.442253 5.108492 -0.782194 -3.077593 -5.002708 -1.809409 -8.894531 9.630405 -2.178644 6.449133 4.090100 -0.838400 5.536200 4.320424 3.452617 -0.623873 -85.134804 -24.534230 33.629272 99.893915 -59.286010 -61.532567 -0.948503 1.915277 -4.313560 16.266378 17.891347 4.773400 -7.125000 0.000000 0.000000 -9.985000 46.175100 -0.292500 -2.619650 -3.334223 -1.235042 78.598974 24.979132 24.989953 -93.331936 62.499480 -64.368885 -0.636733 -0.224237 -7.211859 -23.875911 -25.819334 10.576100 7.125000 0.000000 0.000000 7.370700 -57.579200 -2.278400 
32.217710 17.706692 6.524582 -170.572492 -85.790269 177.604814 -2.476390 -1.129848 -0.278471 -18.073155 -5.539808 -3.828886 -0.545940 4.398392 10.770029 -0.337349 3.916963 -1.091424 0.041400 1.313400 3.611700 0.076562 1.622134 -2.363377 14.433215 1.642000 -35.468074 -8.111870 -16.952753 53.479260 3.290323 -18.010291 -5.403253 -0.103200 -2.072000 5.704600 -2.588657 -1.386007 2.921519 0.887307 -1.543168 -5.425199 5.170229 -0.812730 -3.013251 -4.975575 -1.839810 -8.932182 9.632406 -2.240266 6.642671 4.088700 -0.866400 5.620800 4.337742 3.492826 -0.566153 -85.422331 -26.009674 32.534570 95.477403 -60.190302 -57.481068 -0.981956 1.940001 -4.919404 15.761800 18.396767 4.762700 -7.125000 0.000000 0.000000 -10.570900 46.591200 -0.419700 -2.663564 -3.363942 -1.285895 78.606970 26.165059 24.672757 -88.061839 62.350362 -60.130986 -0.604770 -0.195380 -8.380718 -22.777562 -26.592289 10.333700 7.125000 0.000000 0.000000 8.905200 -58.168400 -2.883900 
32.098191 17.696382 6.531389 -171.700842 -85.762485 178.707065 -2.477707 -1.142792 -0.267339 -18.301272 -5.368077 -3.376879 -0.539988 4.388126 10.762257 -0.327912 3.858583 -1.504593 0.036800 1.238100 3.404200 0.068663 1.608738 -2.375241 14.373419 1.734908 -35.886790 -7.495182 -16.530798 51.357554 3.355464 -18.265391 -5.809495 -0.104000 -2.079000 5.724200 -2.624922 -1.434718 2.914936 0.913611 -1.613807 -5.422008 5.243376 -0.838082 -2.986782 -4.958974 -1.873249 -8.932693 9.629616 -2.305249 6.835079 4.086600 -0.898100 5.698400 4.356349 3.537739 -0.495571 -85.761322 -27.423065 31.388203 90.576198 -61.035059 -53.230514 -0.986214 1.969802 -5.377296 15.343164 18.837456 4.745000 -7.125000 0.000000 0.000000 -11.089400 46.947100 -0.539200 -2.702376 -3.397981 -1.345600 78.596705 27.218064 24.439554 -82.991092 61.981285 -55.988715 -0.573222 -0.173970 -9.713152 -21.742429 -27.436322 10.120100 7.125000 0.000000 0.000000 10.445400 -58.822600 -3.553800 
31.977271 17.685271 6.537295 -172.695223 -85.745644 179.693852 -2.476629 -1.154910 -0.257467 -18.515954 -5.204186 -2.951231 -0.533081 4.384275 10.771343 -0.313886 3.782989 -1.914129 0.032400 1.162300 3.195500 0.066037 1.597936 -2.385603 14.327665 1.800369 -36.235745 -6.851145 -16.050304 49.077818 3.420522 -18.520534 -6.109762 -0.111300 -2.151100 5.923500 -2.649532 -1.481720 2.882689 0.940736 -1.681400 -5.418900 5.315053 -0.862258 -2.947123 -4.946402 -1.911753 -8.935882 9.630388 -2.375891 7.014963 4.085300 -0.932500 5.771500 4.374984 3.586975 -0.418196 -86.120092 -28.792220 30.257503 85.238508 -61.697039 -48.885747 -0.961143 2.007322 -5.717756 15.011722 19.204532 4.720200 -7.125000 0.000000 0.000000 -11.534300 47.232700 -0.643700 -2.738012 -3.435733 -1.407607 78.575516 28.172086 24.255604 -78.238708 61.452640 -52.046810 -0.543389 -0.158734 -11.089714 -20.854149 -28.308286 9.963400 7.125000 0.000000 0.000000 11.886500 -59.516900 -4.250500 
31.854949 17.673259 6.542400 -173.569651 -85.741663 -179.417798 -2.473704 -1.165805 -0.248365 -18.715889 -5.047927 -2.549478 -0.525882 4.384492 10.791039 -0.295190 3.689686 -2.311256 0.028700 1.092700 3.004000 0.068466 1.589945 -2.394624 14.294390 1.844561 -36.512933 -6.187929 -15.508642 46.651528 3.480494 -18.754075 -6.270822 -0.124000 -2.269900 6.252300 -2.664328 -1.524476 2.838499 0.968536 -1.742569 -5.416140 5.387307 -0.884243 -2.900850 -4.938788 -1.965051 -8.972073 9.635486 -2.465372 7.194680 4.084300 -0.974600 5.853400 4.394467 3.634712 -0.345766 -86.496285 -30.097103 29.249473 79.614914 -62.039447 -44.562103 -0.917388 2.053847 -5.987923 14.737136 19.543239 4.695000 -7.125000 0.000000 0.000000 -11.936400 47.488500 -0.743000 -2.770392 -3.471984 -1.466700 78.532201 29.024111 24.081228 -73.845218 60.815489 -48.359781 -0.517510 -0.146567 -12.324231 -20.155548 -29.134504 9.867600 7.125000 0.000000 0.000000 13.140700 -60.191600 -4.920300 
